<?xml version="1.0" encoding="utf-8" ?>
<svg xmlns="http://www.w3.org/2000/svg" xmlns:xlink="http://www.w3.org/1999/xlink" width="43" height="43">
	<path fill="none" stroke="black" stroke-width="4" stroke-miterlimit="5" transform="translate(2 2)" d="M19.5 0C30.269552 -3.5527137e-15 39 8.7304478 39 19.5C39 30.269552 30.269552 39 19.5 39C8.7304478 39 0 30.269552 0 19.5C0 8.7304478 8.7304478 0 19.5 0Z" fill-rule="evenodd"/>
	<path fill="#F5FEFF" transform="translate(2 2)" d="M19.5 0C30.269552 -3.5527137e-15 39 8.7304478 39 19.5C39 30.269552 30.269552 39 19.5 39C8.7304478 39 0 30.269552 0 19.5C0 8.7304478 8.7304478 0 19.5 0Z" fill-rule="evenodd"/>
	<path fill="#2E302E" transform="translate(9.5 11)" d="M3.3039999 9.8719997L5.3039999 9.8719997Q6.2160001 9.8719997 6.7360001 9.3999996Q7.256 8.9280005 7.256 8.1280003Q7.256 7.3119998 6.7360001 6.8319998Q6.2160001 6.3520002 5.3039999 6.3520002L3.3039999 6.3520002L3.3039999 9.8719997ZM5.592 11.568L3.3039999 11.568L3.3039999 16L1.3839999 16L1.3839999 4.6560001L5.592 4.6560001Q7.2080002 4.6560001 8.2080002 5.632Q9.2080002 6.6079998 9.2080002 8.1120005Q9.2080002 9.632 8.2080002 10.6Q7.2080002 11.568 5.592 11.568ZM11.096 15.728Q10.728 15.344 10.728 14.8Q10.728 14.256 11.104 13.872Q11.48 13.488 12.024 13.488Q12.568 13.488 12.952 13.872Q13.336 14.256 13.336 14.8Q13.336 15.344 12.952 15.72Q12.568 16.096001 12.024 16.096001Q11.48 16.096001 11.096 15.728ZM23.208 7.3119998L21.48 7.8559999Q21.368 7.1999998 20.823999 6.6560001Q20.280001 6.112 19.256001 6.112Q18.408001 6.112 17.856001 6.592Q17.304001 7.072 17.304001 7.744Q17.304001 8.9119997 18.632 9.1999998L20.264 9.5360003Q21.736 9.8240004 22.535999 10.704Q23.336 11.584 23.336 12.8Q23.336 14.208 22.256001 15.224Q21.176001 16.24 19.32 16.24Q17.32 16.24 16.200001 15.192Q15.08 14.144 14.936 12.752L16.728001 12.24Q16.823999 13.2 17.496 13.856Q18.167999 14.512 19.32 14.512Q20.312 14.512 20.848 14.072Q21.384001 13.632 21.384001 12.944Q21.384001 12.384 20.983999 11.976Q20.584 11.568 19.864 11.408L18.264 11.072Q16.936001 10.8 16.16 9.9680004Q15.384 9.1359997 15.384 7.888Q15.384 6.4640002 16.52 5.4400001Q17.656 4.4159999 19.24 4.4159999Q21.048 4.4159999 22.007999 5.2880001Q22.968 6.1599998 23.208 7.3119998Z"/>
</svg>
