<?xml version="1.0" encoding="utf-8" ?>
<svg xmlns="http://www.w3.org/2000/svg" xmlns:xlink="http://www.w3.org/1999/xlink" width="25" height="25">
	<path fill="none" stroke="#1D3C34" stroke-width="4" stroke-miterlimit="5" transform="translate(-2.86102e-05 0.00021553)" d="M6 0L17.983479 0C21.297188 -8.8817842e-16 23.983479 2.6862915 23.983479 6L23.983479 17.983479C23.983479 21.297188 21.297188 23.983479 17.983479 23.983479L6 23.983479C2.6862915 23.983479 0 21.297188 0 17.983479L0 6C0 2.6862915 2.6862915 0 6 0Z" fill-rule="evenodd"/>
	<path fill="none" stroke="#1D3C34" stroke-width="4" stroke-miterlimit="5" transform="translate(6.25653 6.25677)" d="M11.47036 5.7351799Q11.47036 5.8759708 11.463451 6.016592Q11.456543 6.1572132 11.442743 6.2973261Q11.428943 6.437439 11.408284 6.5767059Q11.387625 6.7159719 11.360158 6.8540573Q11.332691 6.9921427 11.298482 7.1287146Q11.264273 7.265286 11.223404 7.4000144Q11.182534 7.5347428 11.135103 7.6673031Q11.087671 7.7998638 11.033793 7.9299374Q10.979916 8.0600109 10.91972 8.1872845Q10.859524 8.314558 10.793156 8.4387245Q10.726788 8.5628901 10.654407 8.68365Q10.582026 8.80441 10.503806 8.9214735Q10.425587 9.038537 10.341719 9.1516218Q10.25785 9.2647057 10.168533 9.373539Q10.079216 9.4823713 9.9846668 9.5866899Q9.8901176 9.6910095 9.7905636 9.7905636Q9.6910095 9.8901176 9.5866899 9.9846668Q9.4823713 10.079216 9.373539 10.168533Q9.2647057 10.25785 9.1516218 10.341719Q9.038538 10.425587 8.9214745 10.503806Q8.8044109 10.582026 8.683651 10.654407Q8.562891 10.726788 8.4387245 10.793157Q8.314558 10.859525 8.1872845 10.919721Q8.0600109 10.979916 7.9299374 11.033794Q7.7998638 11.087673 7.6673036 11.135104Q7.5347428 11.182535 7.4000144 11.223405Q7.265286 11.264275 7.1287146 11.298483Q6.9921427 11.332692 6.8540573 11.360159Q6.7159719 11.387626 6.5767055 11.408284Q6.437439 11.428943 6.2973261 11.442743Q6.1572132 11.456543 6.016592 11.463451Q5.8759708 11.47036 5.7351799 11.47036Q5.5943894 11.47036 5.4537683 11.463451Q5.3131471 11.456543 5.1730342 11.442743Q5.0329208 11.428943 4.8936539 11.408284Q4.7543869 11.387625 4.6163015 11.360158Q4.4782162 11.332691 4.3416443 11.298482Q4.2050734 11.264273 4.0703449 11.223404Q3.9356165 11.182534 3.8030558 11.135103Q3.6704948 11.087671 3.540421 11.033793Q3.4103475 10.979916 3.2830741 10.91972Q3.1558008 10.859524 3.0316346 10.793156Q2.9074681 10.726788 2.7867076 10.654407Q2.6659474 10.582026 2.5488842 10.503806Q2.4318209 10.425587 2.3187368 10.341719Q2.2056527 10.25785 2.0968201 10.168533Q1.9879874 10.079216 1.8836682 9.9846668Q1.7793492 9.8901176 1.6797951 9.7905636Q1.580241 9.6910095 1.4856918 9.5866899Q1.3911426 9.4823713 1.3018259 9.373539Q1.2125092 9.2647057 1.1286401 9.1516218Q1.0447711 9.038538 0.96655196 8.9214745Q0.88833284 8.8044109 0.81595194 8.683651Q0.74357104 8.562891 0.67720276 8.4387245Q0.61083448 8.314558 0.55063862 8.1872845Q0.49044281 8.0600109 0.43656451 7.9299374Q0.3826862 7.7998638 0.33525524 7.6673036Q0.28782427 7.5347428 0.2469549 7.4000144Q0.2060855 7.265286 0.17187613 7.1287146Q0.13766676 6.9921427 0.11019985 6.8540573Q0.082732946 6.7159719 0.062074654 6.5767055Q0.041416362 6.437439 0.027616456 6.2973261Q0.013816549 6.1572132 0.0069082743 6.016592Q0 5.8759708 0 5.7351799Q0 5.5943894 0.0069082743 5.4537683Q0.013816549 5.3131471 0.027616456 5.1730342Q0.041416362 5.0329208 0.062074654 4.8936539Q0.082732946 4.7543869 0.11019985 4.6163015Q0.13766676 4.4782162 0.17187613 4.3416443Q0.20608549 4.2050734 0.24695489 4.0703449Q0.28782427 3.9356165 0.33525524 3.8030558Q0.3826862 3.6704948 0.43656451 3.540421Q0.49044281 3.4103475 0.55063862 3.2830741Q0.61083442 3.1558008 0.6772027 3.0316346Q0.74357104 2.9074681 0.81595194 2.7867076Q0.88833284 2.6659474 0.96655202 2.5488842Q1.0447712 2.4318209 1.1286402 2.3187368Q1.2125092 2.2056527 1.3018259 2.0968201Q1.3911426 1.9879874 1.4856918 1.8836682Q1.580241 1.7793492 1.6797951 1.6797951Q1.7793492 1.580241 1.8836682 1.4856918Q1.9879874 1.3911426 2.0968201 1.3018259Q2.2056527 1.2125092 2.318737 1.1286401Q2.4318209 1.0447711 2.5488844 0.96655196Q2.6659474 0.88833284 2.7867079 0.81595194Q2.9074683 0.74357104 3.0316348 0.67720276Q3.1558011 0.61083448 3.2830744 0.55063862Q3.4103475 0.49044281 3.5404212 0.43656451Q3.670495 0.3826862 3.8030558 0.33525524Q3.9356165 0.28782427 4.0703449 0.2469549Q4.2050734 0.2060855 4.3416443 0.17187613Q4.4782162 0.13766676 4.6163015 0.11019985Q4.7543869 0.082732946 4.8936539 0.062074654Q5.0329208 0.041416362 5.1730342 0.027616456Q5.3131471 0.013816549 5.4537683 0.0069082743Q5.5943894 0 5.7351799 0Q5.8759708 0 6.016592 0.0069082743Q6.1572132 0.013816549 6.2973261 0.027616456Q6.437439 0.041416362 6.5767059 0.062074654Q6.7159719 0.082732946 6.8540573 0.11019985Q6.9921427 0.13766676 7.1287146 0.17187613Q7.265286 0.20608549 7.4000144 0.24695489Q7.5347428 0.28782427 7.6673031 0.33525524Q7.7998638 0.3826862 7.9299374 0.43656451Q8.0600109 0.49044281 8.1872845 0.55063862Q8.314558 0.61083442 8.4387245 0.6772027Q8.5628901 0.74357104 8.68365 0.81595194Q8.80441 0.88833284 8.9214735 0.96655202Q9.038537 1.0447712 9.1516218 1.1286402Q9.2647057 1.2125092 9.373539 1.3018259Q9.4823713 1.3911426 9.5866899 1.4856918Q9.6910095 1.580241 9.7905636 1.6797951Q9.8901176 1.7793492 9.9846668 1.8836682Q10.079216 1.9879874 10.168533 2.0968201Q10.25785 2.2056527 10.341719 2.318737Q10.425587 2.4318209 10.503806 2.5488844Q10.582026 2.6659474 10.654407 2.7867079Q10.726788 2.9074683 10.793157 3.0316348Q10.859525 3.1558011 10.919721 3.2830744Q10.979916 3.4103475 11.033794 3.5404212Q11.087673 3.670495 11.135104 3.8030558Q11.182535 3.9356165 11.223405 4.0703449Q11.264275 4.2050734 11.298483 4.3416443Q11.332692 4.4782162 11.360159 4.6163015Q11.387626 4.7543869 11.408284 4.8936539Q11.428943 5.0329208 11.442743 5.1730342Q11.456543 5.3131471 11.463451 5.4537683Q11.47036 5.5943894 11.47036 5.7351799Z"/>
	<path fill="#1D3C34" transform="translate(16.6841 4.17126)" d="M3.1282799 1.56414Q3.1282802 1.6409813 3.120748 1.7174525Q3.1132164 1.7939236 3.0982251 1.8692882Q3.0832343 1.9446532 3.0609283 2.0181856Q3.0386224 2.0917182 3.0092163 2.16271Q2.9798107 2.2337022 2.9435878 2.30147Q2.9073653 2.3692379 2.8646743 2.4331291Q2.8219838 2.4970205 2.7732363 2.5564196Q2.7244887 2.6158187 2.6701536 2.6701536Q2.6158187 2.7244887 2.5564196 2.7732363Q2.4970207 2.8219838 2.4331293 2.8646743Q2.3692384 2.9073653 2.3014703 2.9435878Q2.2337022 2.9798107 2.1627102 3.0092163Q2.0917182 3.0386224 2.0181859 3.0609281Q1.9446533 3.0832343 1.8692883 3.0982251Q1.7939237 3.1132164 1.7174525 3.120748Q1.6409813 3.1282799 1.56414 3.1282799Q1.4872987 3.1282799 1.4108274 3.120748Q1.3343561 3.1132164 1.2589912 3.0982251Q1.1836267 3.0832343 1.1100941 3.0609283Q1.0365615 3.0386224 0.96556938 3.0092163Q0.89457738 2.9798107 0.82680941 2.9435878Q0.75904143 2.9073653 0.6951502 2.8646743Q0.63125908 2.8219838 0.57186002 2.7732363Q0.51246095 2.7244887 0.45812595 2.6701536Q0.40379098 2.6158187 0.35504341 2.5564196Q0.30629581 2.4970207 0.26360509 2.4331293Q0.22091438 2.3692384 0.18469167 2.3014703Q0.14846893 2.2337022 0.11906304 2.1627102Q0.089657173 2.0917182 0.067351334 2.0181859Q0.045045491 1.9446533 0.030054504 1.8692883Q0.015063521 1.7939237 0.0075317603 1.7174525Q0 1.6409813 0 1.56414Q0 1.4872987 0.0075317603 1.4108274Q0.015063521 1.3343561 0.030054504 1.2589912Q0.045045491 1.1836267 0.067351334 1.1100941Q0.089657173 1.0365615 0.11906304 0.96556938Q0.14846893 0.89457738 0.18469164 0.82680941Q0.22091436 0.75904143 0.26360506 0.6951502Q0.30629581 0.63125908 0.35504338 0.57186002Q0.40379098 0.51246095 0.45812595 0.45812595Q0.51246095 0.40379098 0.57186007 0.35504341Q0.63125914 0.30629581 0.69515026 0.26360509Q0.75904143 0.22091438 0.82680941 0.18469167Q0.89457738 0.14846893 0.96556938 0.11906304Q1.0365615 0.089657173 1.1100941 0.067351334Q1.1836267 0.045045491 1.2589912 0.030054504Q1.3343561 0.015063521 1.4108274 0.0075317603Q1.4872987 0 1.56414 0Q1.6409813 0 1.7174525 0.0075317603Q1.7939236 0.015063521 1.8692882 0.030054504Q1.9446532 0.045045491 2.0181856 0.067351334Q2.0917182 0.089657173 2.16271 0.11906304Q2.2337022 0.14846893 2.30147 0.18469164Q2.3692379 0.22091436 2.4331291 0.26360506Q2.4970205 0.30629581 2.5564196 0.35504338Q2.6158187 0.40379098 2.6701536 0.45812595Q2.7244887 0.51246095 2.7732363 0.57186007Q2.8219838 0.63125914 2.8646743 0.69515026Q2.9073653 0.75904143 2.9435878 0.82680941Q2.9798107 0.89457738 3.0092163 0.96556938Q3.0386224 1.0365615 3.0609281 1.1100941Q3.0832343 1.1836267 3.0982251 1.2589912Q3.1132164 1.3343561 3.120748 1.4108274Q3.1282802 1.4872987 3.1282799 1.56414Z"/>
</svg>
