<?xml version="1.0" encoding="utf-8" ?>
<svg xmlns="http://www.w3.org/2000/svg" xmlns:xlink="http://www.w3.org/1999/xlink" width="25" height="30">
	<path fill="#1D3C34" transform="translate(0.441494 0.00317478)" d="M10.49117 15.775881C10.002399 15.73195 9.5987244 15.665257 9.1948366 15.664086C6.0265994 15.655045 3.9786534 19.096867 5.561336 21.831326C6.4862251 23.429537 8.3610001 24.291349 10.260985 23.812683C12.071512 23.356461 13.337212 21.71102 13.337424 19.839436C13.337956 13.472434 13.337531 7.105432 13.33785 0.73842961C13.33785 0.0050069471 13.339232 0.0042623556 14.058402 0.0038368749C14.926383 0.0031986535 15.79447 0.010750939 16.662239 0C16.952415 -0.0035026702 17.11261 0.07797692 17.178879 0.39027989C17.765511 3.1557992 20.434126 5.7328305 23.731922 5.7897387C23.764046 5.7902703 23.795744 5.8117571 23.865204 5.8371797L23.865204 11.849224C21.9048 11.630953 20.161924 10.92125 18.466064 9.7944708C18.455109 10.042526 18.440536 10.220803 18.44043 10.399079C18.439047 13.511897 18.44862 16.624609 18.437346 19.73732C18.418516 24.930422 14.332305 29.037588 9.223875 29.012915C4.5355015 28.990147 0.5221532 25.447168 0.052741423 20.916647C-0.44166735 16.14456 2.5859482 11.841247 7.2012458 10.866576C8.1378355 10.668728 9.1344175 10.742549 10.103983 10.724679C10.231095 10.722232 10.472875 10.918272 10.47447 11.025387C10.498722 12.595518 10.49117 14.166181 10.49117 15.775881" fill-rule="evenodd"/>
</svg>
